<svg xmlns="http://www.w3.org/2000/svg" viewBox="0 0 384 512">
<path fill="white" d="M318.7 268.2c-.3-45.5 37.2-67.3 38.9-68.3-21.2-31-54.2-35.2-65.8-35.7-28-2.8-54.6 16.5-68.8 16.5-14.2 0-36.1-16.1-59.3-15.7-30.5.4-58.6 17.7-74.3 45-31.8 55.2-8.1 136.8 22.8 181.3 15.1 21.8 33 46.3 56.5 45.4 22.6-.9 31.1-14.6 58.4-14.6 27.3 0 35 14.6 58.8 14.2 24.3-.4 39.6-22 54.6-43.9 17.4-25.4 24.5-50 24.8-51.3-.5-.2-47.5-18.2-47.9-72.9zM260.2 97.5c12.5-15.2 21-36.4 18.7-57.5-18 .7-39.7 12-52.6 27.2-11.6 13.4-21.7 34.8-19 55.3 20.1 1.6 40.4-10.2 52.9-25z"/>
</svg>